<svg width="141" height="36" viewBox="0 0 141 36" fill="none" xmlns="http://www.w3.org/2000/svg">
<path d="M11.8232 7.23744L11.2929 6.70711L11.8232 7.23744C11.9209 7.13981 12.0791 7.13981 12.1768 7.23744L12.7038 6.7104L12.1768 7.23744L16.0349 11.0956L16.5653 10.5653L16.0349 11.0956C16.1326 11.1932 16.1326 11.3515 16.0349 11.4491L16.5653 11.9795L16.0349 11.4491L12.1768 15.3073C12.0791 15.4049 11.9209 15.4049 11.8232 15.3073L7.96507 11.4491C7.86744 11.3515 7.86744 11.1932 7.96507 11.0956L11.8232 7.23744ZM18.9044 22.0349C18.8068 22.1326 18.6485 22.1326 18.5509 22.0349L14.6927 18.1768C14.5951 18.0791 14.5951 17.9209 14.6927 17.8232L18.5509 13.9651C18.6485 13.8674 18.8068 13.8674 18.9044 13.9651L22.7626 17.8232C22.8602 17.9209 22.8602 18.0791 22.7626 18.1768L18.9044 22.0349ZM5.44914 22.0349L5.97947 22.5653L5.44914 22.0349C5.35151 22.1326 5.19322 22.1326 5.09559 22.0349L1.23744 18.1768L0.707107 18.7071L1.23744 18.1768C1.13981 18.0791 1.13981 17.9209 1.23744 17.8232L0.707107 17.2929L1.23744 17.8232L5.09559 13.9651C5.19322 13.8674 5.35151 13.8674 5.44914 13.9651L9.30729 17.8232C9.40493 17.9209 9.40493 18.0791 9.30729 18.1768L5.44914 22.0349ZM12.1768 28.7626C12.0791 28.8602 11.9209 28.8602 11.8232 28.7626L7.96507 24.9044C7.86744 24.8068 7.86744 24.6485 7.96507 24.5509L11.8232 20.6927C11.9209 20.5951 12.0791 20.5951 12.1768 20.6927L16.0349 24.5509C16.1326 24.6485 16.1326 24.8068 16.0349 24.9044L12.1768 28.7626Z" fill="#652EBE" stroke="#652EBE" stroke-width="1.5"/>
<path d="M44.9354 26H42.8234V18.992C42.8234 17.664 42.6154 16.696 42.1994 16.088C41.7994 15.464 41.1834 15.152 40.3514 15.152C39.7754 15.152 39.1994 15.296 38.6234 15.584C38.0634 15.872 37.5594 16.264 37.1114 16.76C36.6794 17.24 36.3674 17.8 36.1754 18.44V26H34.0634V13.472H35.9834V16.16C36.3194 15.568 36.7514 15.056 37.2794 14.624C37.8074 14.192 38.4074 13.856 39.0794 13.616C39.7514 13.376 40.4554 13.256 41.1914 13.256C41.9114 13.256 42.5114 13.392 42.9914 13.664C43.4874 13.92 43.8714 14.288 44.1434 14.768C44.4314 15.232 44.6314 15.784 44.7434 16.424C44.8714 17.064 44.9354 17.76 44.9354 18.512V26ZM47.2356 22.376C47.2356 21.576 47.4596 20.888 47.9076 20.312C48.3716 19.72 49.0036 19.264 49.8036 18.944C50.6036 18.624 51.5316 18.464 52.5876 18.464C53.1476 18.464 53.7396 18.512 54.3636 18.608C54.9876 18.688 55.5396 18.816 56.0196 18.992V18.08C56.0196 17.12 55.7316 16.368 55.1556 15.824C54.5796 15.264 53.7636 14.984 52.7076 14.984C52.0196 14.984 51.3556 15.112 50.7156 15.368C50.0916 15.608 49.4276 15.96 48.7236 16.424L47.9556 14.936C48.7716 14.376 49.5876 13.96 50.4036 13.688C51.2196 13.4 52.0676 13.256 52.9476 13.256C54.5476 13.256 55.8116 13.704 56.7396 14.6C57.6676 15.48 58.1316 16.712 58.1316 18.296V23.6C58.1316 23.856 58.1796 24.048 58.2756 24.176C58.3876 24.288 58.5636 24.352 58.8036 24.368V26C58.5956 26.032 58.4116 26.056 58.2516 26.072C58.1076 26.088 57.9876 26.096 57.8916 26.096C57.3956 26.096 57.0196 25.96 56.7636 25.688C56.5236 25.416 56.3876 25.128 56.3556 24.824L56.3076 24.032C55.7636 24.736 55.0516 25.28 54.1716 25.664C53.2916 26.048 52.4196 26.24 51.5556 26.24C50.7236 26.24 49.9796 26.072 49.3236 25.736C48.6676 25.384 48.1556 24.92 47.7876 24.344C47.4196 23.752 47.2356 23.096 47.2356 22.376ZM55.3956 23.264C55.5876 23.04 55.7396 22.816 55.8516 22.592C55.9636 22.352 56.0196 22.152 56.0196 21.992V20.432C55.5236 20.24 55.0036 20.096 54.4596 20C53.9156 19.888 53.3796 19.832 52.8516 19.832C51.7796 19.832 50.9076 20.048 50.2356 20.48C49.5796 20.896 49.2516 21.472 49.2516 22.208C49.2516 22.608 49.3556 23 49.5636 23.384C49.7876 23.752 50.1076 24.056 50.5236 24.296C50.9556 24.536 51.4836 24.656 52.1076 24.656C52.7636 24.656 53.3876 24.528 53.9796 24.272C54.5716 24 55.0436 23.664 55.3956 23.264ZM80.3967 26H78.2847V18.992C78.2847 17.68 78.0687 16.712 77.6367 16.088C77.2207 15.464 76.5967 15.152 75.7647 15.152C74.9167 15.152 74.1487 15.464 73.4607 16.088C72.7727 16.696 72.2847 17.488 71.9967 18.464V26H69.8847V18.992C69.8847 17.664 69.6767 16.696 69.2607 16.088C68.8447 15.464 68.2207 15.152 67.3887 15.152C66.5567 15.152 65.7887 15.456 65.0847 16.064C64.3967 16.656 63.9087 17.448 63.6207 18.44V26H61.5087V13.472H63.4287V16.16C63.9407 15.232 64.6047 14.52 65.4207 14.024C66.2367 13.512 67.1567 13.256 68.1807 13.256C69.2207 13.256 70.0527 13.544 70.6767 14.12C71.3007 14.68 71.6847 15.408 71.8287 16.304C72.3887 15.312 73.0687 14.56 73.8687 14.048C74.6687 13.52 75.5807 13.256 76.6047 13.256C77.3247 13.256 77.9247 13.392 78.4047 13.664C78.9007 13.92 79.2927 14.288 79.5807 14.768C79.8687 15.232 80.0767 15.784 80.2047 16.424C80.3327 17.064 80.3967 17.76 80.3967 18.512V26ZM89.2246 26.24C88.2806 26.24 87.4166 26.072 86.6326 25.736C85.8646 25.384 85.1926 24.912 84.6166 24.32C84.0566 23.712 83.6166 23.016 83.2966 22.232C82.9926 21.448 82.8406 20.616 82.8406 19.736C82.8406 18.552 83.1126 17.472 83.6566 16.496C84.2006 15.52 84.9526 14.736 85.9126 14.144C86.8886 13.552 88.0006 13.256 89.2486 13.256C90.5126 13.256 91.6086 13.56 92.5366 14.168C93.4806 14.76 94.2086 15.544 94.7206 16.52C95.2486 17.48 95.5126 18.52 95.5126 19.64C95.5126 19.8 95.5046 19.96 95.4886 20.12C95.4886 20.264 95.4806 20.376 95.4646 20.456H85.0726C85.1366 21.272 85.3606 22 85.7446 22.64C86.1446 23.264 86.6566 23.76 87.2806 24.128C87.9046 24.48 88.5766 24.656 89.2966 24.656C90.0646 24.656 90.7846 24.464 91.4566 24.08C92.1446 23.696 92.6166 23.192 92.8726 22.568L94.6966 23.072C94.4246 23.68 94.0166 24.224 93.4726 24.704C92.9446 25.184 92.3126 25.56 91.5766 25.832C90.8566 26.104 90.0726 26.24 89.2246 26.24ZM85.0006 18.992H93.5446C93.4806 18.176 93.2486 17.456 92.8486 16.832C92.4486 16.208 91.9366 15.72 91.3126 15.368C90.6886 15.016 90.0006 14.84 89.2486 14.84C88.5126 14.84 87.8326 15.016 87.2086 15.368C86.5846 15.72 86.0726 16.208 85.6726 16.832C85.2886 17.456 85.0646 18.176 85.0006 18.992ZM97.9083 8.48H100.02V22.76C100.02 23.448 100.116 23.872 100.308 24.032C100.5 24.192 100.732 24.272 101.004 24.272C101.34 24.272 101.66 24.24 101.964 24.176C102.268 24.096 102.524 24.016 102.732 23.936L103.068 25.664C102.716 25.808 102.3 25.928 101.82 26.024C101.34 26.12 100.916 26.168 100.548 26.168C99.7323 26.168 99.0843 25.936 98.6043 25.472C98.1403 25.008 97.9083 24.36 97.9083 23.528V8.48ZM110.271 26.24C109.327 26.24 108.463 26.072 107.679 25.736C106.911 25.384 106.239 24.912 105.663 24.32C105.103 23.712 104.663 23.016 104.343 22.232C104.039 21.448 103.887 20.616 103.887 19.736C103.887 18.552 104.159 17.472 104.703 16.496C105.247 15.52 105.999 14.736 106.959 14.144C107.935 13.552 109.047 13.256 110.295 13.256C111.559 13.256 112.655 13.56 113.583 14.168C114.527 14.76 115.255 15.544 115.767 16.52C116.295 17.48 116.559 18.52 116.559 19.64C116.559 19.8 116.551 19.96 116.535 20.12C116.535 20.264 116.527 20.376 116.511 20.456H106.119C106.183 21.272 106.407 22 106.791 22.64C107.191 23.264 107.703 23.76 108.327 24.128C108.951 24.48 109.623 24.656 110.343 24.656C111.111 24.656 111.831 24.464 112.503 24.08C113.191 23.696 113.663 23.192 113.919 22.568L115.743 23.072C115.471 23.68 115.063 24.224 114.519 24.704C113.991 25.184 113.359 25.56 112.623 25.832C111.903 26.104 111.119 26.24 110.271 26.24ZM106.047 18.992H114.591C114.527 18.176 114.295 17.456 113.895 16.832C113.495 16.208 112.983 15.72 112.359 15.368C111.735 15.016 111.047 14.84 110.295 14.84C109.559 14.84 108.879 15.016 108.255 15.368C107.631 15.72 107.119 16.208 106.719 16.832C106.335 17.456 106.111 18.176 106.047 18.992ZM123.203 26.24C122.163 26.24 121.187 26.072 120.275 25.736C119.363 25.384 118.579 24.864 117.923 24.176L118.739 22.688C119.459 23.36 120.179 23.84 120.899 24.128C121.619 24.416 122.355 24.56 123.107 24.56C123.971 24.56 124.675 24.4 125.219 24.08C125.763 23.744 126.035 23.256 126.035 22.616C126.035 22.152 125.891 21.808 125.603 21.584C125.331 21.36 124.939 21.176 124.427 21.032C123.915 20.872 123.307 20.696 122.603 20.504C121.739 20.248 121.011 19.976 120.419 19.688C119.827 19.4 119.379 19.04 119.075 18.608C118.771 18.176 118.619 17.632 118.619 16.976C118.619 16.176 118.827 15.504 119.243 14.96C119.659 14.4 120.227 13.976 120.947 13.688C121.683 13.4 122.515 13.256 123.443 13.256C124.371 13.256 125.211 13.4 125.963 13.688C126.715 13.976 127.363 14.4 127.907 14.96L126.947 16.424C126.451 15.912 125.907 15.536 125.315 15.296C124.723 15.04 124.059 14.912 123.323 14.912C122.891 14.912 122.467 14.968 122.051 15.08C121.635 15.176 121.291 15.36 121.019 15.632C120.747 15.888 120.611 16.256 120.611 16.736C120.611 17.136 120.715 17.456 120.923 17.696C121.147 17.92 121.467 18.112 121.883 18.272C122.315 18.432 122.835 18.608 123.443 18.8C124.387 19.072 125.203 19.344 125.891 19.616C126.595 19.888 127.139 20.24 127.523 20.672C127.907 21.104 128.099 21.704 128.099 22.472C128.099 23.656 127.651 24.584 126.755 25.256C125.859 25.912 124.675 26.24 123.203 26.24ZM134.922 26.24C133.882 26.24 132.906 26.072 131.994 25.736C131.082 25.384 130.298 24.864 129.642 24.176L130.458 22.688C131.178 23.36 131.898 23.84 132.618 24.128C133.338 24.416 134.074 24.56 134.826 24.56C135.69 24.56 136.394 24.4 136.938 24.08C137.482 23.744 137.754 23.256 137.754 22.616C137.754 22.152 137.61 21.808 137.322 21.584C137.05 21.36 136.658 21.176 136.146 21.032C135.634 20.872 135.026 20.696 134.322 20.504C133.458 20.248 132.73 19.976 132.138 19.688C131.546 19.4 131.098 19.04 130.794 18.608C130.49 18.176 130.338 17.632 130.338 16.976C130.338 16.176 130.546 15.504 130.962 14.96C131.378 14.4 131.946 13.976 132.666 13.688C133.402 13.4 134.234 13.256 135.162 13.256C136.09 13.256 136.93 13.4 137.682 13.688C138.434 13.976 139.082 14.4 139.626 14.96L138.666 16.424C138.17 15.912 137.626 15.536 137.034 15.296C136.442 15.04 135.778 14.912 135.042 14.912C134.61 14.912 134.186 14.968 133.77 15.08C133.354 15.176 133.01 15.36 132.738 15.632C132.466 15.888 132.33 16.256 132.33 16.736C132.33 17.136 132.434 17.456 132.642 17.696C132.866 17.92 133.186 18.112 133.602 18.272C134.034 18.432 134.554 18.608 135.162 18.8C136.106 19.072 136.922 19.344 137.61 19.616C138.314 19.888 138.858 20.24 139.242 20.672C139.626 21.104 139.818 21.704 139.818 22.472C139.818 23.656 139.37 24.584 138.474 25.256C137.578 25.912 136.394 26.24 134.922 26.24Z" fill="#FEFEFE"/>
</svg>
